<svg xmlns="http://www.w3.org/2000/svg" viewBox="0 0 32 32"><defs><style>.cls-1{fill:#a5a4a4;}</style></defs><g id="Layer_3" data-name="Layer 3"><path class="cls-1" d="M30,20.72a1,1,0,0,0,0-.17v-9.1a1,1,0,0,0,0-.17.07.07,0,0,0,0,0,.77.77,0,0,0-.14-.32,0,0,0,0,0,0,0l0,0a1.14,1.14,0,0,0-.25-.24h0l-13-8.44-.1-.05-.09,0a1.05,1.05,0,0,0-.7,0l-.09,0-.1.05-13,8.44h0a1.14,1.14,0,0,0-.25.24l0,0a0,0,0,0,0,0,0,.77.77,0,0,0-.14.32.07.07,0,0,0,0,0,1,1,0,0,0,0,.17v9.1a1,1,0,0,0,0,.17.07.07,0,0,0,0,.05.77.77,0,0,0,.14.32,0,0,0,0,0,0,0l0,0a1.14,1.14,0,0,0,.25.24l13,8.45.1.05.09,0a.91.91,0,0,0,.7,0l.09,0,.1-.05,13-8.45a.89.89,0,0,0,.26-.25s0,0,0,0a0,0,0,0,0,0,0,.77.77,0,0,0,.14-.32A.07.07,0,0,0,30,20.72ZM4,13.37,7.76,16,4,18.63Zm12,6L11.24,16,16,12.67,20.76,16Zm1-8.4V4.84l10.21,6.64-4.71,3.3Zm-2,0L9.5,14.78l-4.71-3.3L15,4.84ZM9.5,17.22,15,21.07v6.09L4.79,20.52ZM17,21.07l5.5-3.85,4.71,3.3L17,27.16ZM24.24,16,28,13.37v5.26Z"/></g></svg>