<svg xmlns="http://www.w3.org/2000/svg" viewBox="0 0 32 32"><defs><style>.cls-1{fill:#eb5a7e;}.cls-2{fill:#e1375c;}.cls-3{fill:#c83153;}</style></defs><g id="Layer_3" data-name="Layer 3"><circle class="cls-1" cx="16" cy="16" r="14"/><path class="cls-2" d="M17.12,28.4a14,14,0,0,1-12-21.22A14,14,0,1,0,28,23.23,14,14,0,0,1,17.12,28.4Z"/><path class="cls-3" d="M23.56,15.29a24.47,24.47,0,0,0-3.64.28,23.39,23.39,0,0,0-1-3.25,22.45,22.45,0,0,0,2.27-2A23.57,23.57,0,0,0,25,5.3a14.9,14.9,0,0,0-2-1.38,21.39,21.39,0,0,1-5.14,6.17,23.75,23.75,0,0,0-4.3-5.91c-.56-.55-1.14-1.08-1.74-1.57A13.66,13.66,0,0,0,9.38,3.66,21.19,21.19,0,0,1,16,11.5,20.9,20.9,0,0,1,4.66,14.82a22.27,22.27,0,0,1-2.6-.16C2,15.1,2,15.55,2,16s0,.69,0,1a25.25,25.25,0,0,0,2.62.14,23.2,23.2,0,0,0,9.1-1.84,22.45,22.45,0,0,0,3.16-1.63,20.46,20.46,0,0,1,.68,2.35A23.36,23.36,0,0,0,7,22.14a23.84,23.84,0,0,0-2.1,2.41,13.77,13.77,0,0,0,1.63,1.78A21.08,21.08,0,0,1,18,18.4a22.27,22.27,0,0,1,.13,2.33A20.93,20.93,0,0,1,16,30h0a14,14,0,0,0,2.69-.26,23.33,23.33,0,0,0,1.8-9,24.16,24.16,0,0,0-.17-2.83,21.68,21.68,0,0,1,3.24-.25,20.82,20.82,0,0,1,6.2.94,13.56,13.56,0,0,0,.24-2.4A23.19,23.19,0,0,0,23.56,15.29Z"/></g></svg>