<svg id="Layer_1" data-name="Layer 1" xmlns="http://www.w3.org/2000/svg" xmlns:xlink="http://www.w3.org/1999/xlink" viewBox="0 0 32 32"><defs><style>.cls-1{fill:url(#linear-gradient);}.cls-2{fill:url(#linear-gradient-3);}</style><linearGradient id="linear-gradient" x1="16" y1="-492.08" x2="16" y2="-519.78" gradientTransform="translate(0 522)" gradientUnits="userSpaceOnUse"><stop offset="0" stop-color="#e09b3c"/><stop offset="0.3" stop-color="#c84c4d"/><stop offset="0.6" stop-color="#c31b76"/><stop offset="1" stop-color="#5b3f92"/></linearGradient><linearGradient id="linear-gradient-3" x1="23.26" y1="-492.08" x2="23.26" y2="-519.78" xlink:href="#linear-gradient"/></defs><path class="cls-1" d="M21.66,2H10.34A8.35,8.35,0,0,0,2,10.34V21.66A8.35,8.35,0,0,0,10.34,30H21.66A8.35,8.35,0,0,0,30,21.66V10.34A8.35,8.35,0,0,0,21.66,2Zm5.52,19.66a5.52,5.52,0,0,1-5.52,5.52H10.34a5.52,5.52,0,0,1-5.52-5.52V10.34a5.52,5.52,0,0,1,5.52-5.52H21.66a5.52,5.52,0,0,1,5.52,5.52V21.66Z"/><path class="cls-1" d="M16,8.76A7.24,7.24,0,1,0,23.24,16,7.25,7.25,0,0,0,16,8.76Zm0,11.66A4.42,4.42,0,1,1,20.42,16,4.42,4.42,0,0,1,16,20.42Z"/><circle class="cls-2" cx="23.26" cy="8.81" r="1.74"/></svg>