<svg xmlns="http://www.w3.org/2000/svg" viewBox="0 0 32 32"><defs><style>.cls-1{fill:#54a4db;}</style></defs><g id="Layer_2" data-name="Layer 2"><path class="cls-1" d="M29.55,7.06a10.71,10.71,0,0,1-1.93.66,6.09,6.09,0,0,0,1.59-2.54h0a.31.31,0,0,0-.46-.36h0A11.56,11.56,0,0,1,25.8,6l-.18,0a.77.77,0,0,1-.52-.2,6,6,0,0,0-4-1.51,6.34,6.34,0,0,0-1.91.3,5.84,5.84,0,0,0-3.94,4.21,6.25,6.25,0,0,0-.14,2.23.21.21,0,0,1-.06.17.24.24,0,0,1-.16.07h0A15.82,15.82,0,0,1,4,5.52H4a.32.32,0,0,0-.52,0h0a6,6,0,0,0-.82,3,6.06,6.06,0,0,0,1.8,4.31,5.82,5.82,0,0,1-1.38-.54h0a.32.32,0,0,0-.47.28h0A6,6,0,0,0,6.13,18.2H6a5.87,5.87,0,0,1-1-.1H5a.31.31,0,0,0-.36.4h0A6.06,6.06,0,0,0,9.4,22.63a11.12,11.12,0,0,1-6.24,1.89H2.47a.47.47,0,0,0-.46.35.49.49,0,0,0,.23.53,16.6,16.6,0,0,0,8.33,2.25,16.79,16.79,0,0,0,7.11-1.51,15.65,15.65,0,0,0,5.21-3.9,17.39,17.39,0,0,0,3.19-5.34,16.89,16.89,0,0,0,1.08-5.85V11a1,1,0,0,1,.38-.8A12.05,12.05,0,0,0,30,7.53h0a.32.32,0,0,0-.4-.47Z"/></g></svg>